<?xml version="1.0" encoding="UTF-8" standalone="no"?>
<svg
   xmlns:dc="http://purl.org/dc/elements/1.1/"
   xmlns:cc="http://creativecommons.org/ns#"
   xmlns:rdf="http://www.w3.org/1999/02/22-rdf-syntax-ns#"
   xmlns:svg="http://www.w3.org/2000/svg"
   xmlns="http://www.w3.org/2000/svg"
   xmlns:sodipodi="http://sodipodi.sourceforge.net/DTD/sodipodi-0.dtd"
   xmlns:inkscape="http://www.inkscape.org/namespaces/inkscape"
   enable-background="new 0 0 45 45"
   viewBox="0 0 45 45"
   version="1.1"
   id="svg985"
   sodipodi:docname="icon.svg"
   inkscape:export-filename="/home/m/code/current/icon.svg.png"
   inkscape:export-xdpi="300"
   inkscape:export-ydpi="300"
   inkscape:version="0.92.3 (2405546, 2018-03-11)">
  <metadata
     id="metadata991">
    <rdf:RDF>
      <cc:Work
         rdf:about="">
        <dc:format>image/svg+xml</dc:format>
        <dc:type
           rdf:resource="http://purl.org/dc/dcmitype/StillImage" />
        <dc:title></dc:title>
      </cc:Work>
    </rdf:RDF>
  </metadata>
  <defs
     id="defs989" />
  <sodipodi:namedview
     pagecolor="#ffffff"
     bordercolor="#666666"
     borderopacity="1"
     objecttolerance="10"
     gridtolerance="10"
     guidetolerance="10"
     inkscape:pageopacity="0"
     inkscape:pageshadow="2"
     inkscape:window-width="1920"
     inkscape:window-height="1057"
     id="namedview987"
     showgrid="false"
     inkscape:zoom="5.2444444"
     inkscape:cx="31.271186"
     inkscape:cy="22.5"
     inkscape:window-x="0"
     inkscape:window-y="23"
     inkscape:window-maximized="0"
     inkscape:current-layer="svg985" />
  <clipPath
     id="a">
    <path
       d="m0 36h36v-36h-36z"
       id="path974" />
  </clipPath>
  <g
     clip-path="url(#a)"
     transform="matrix(1.25 0 0 -1.25 0 45)"
     id="g983">
    <path
       d="m0 0c.389-.389.389-1.025 0-1.414s-1.025-.389-1.414 0l-8.485 8.486c-.389.389-.389 1.025 0 1.414.388.388 1.025.388 1.414 0z"
       fill="#9aaab4"
       transform="translate(11.858 19.736)"
       id="path977" />
    <path
       d="m0 0c.389-.389.389-1.025 0-1.414s-1.025-.389-1.414 0l-8.486 8.486c-.389.389-.389 1.025 0 1.414.388.388 1.025.388 1.414 0z"
       fill="#9aaab4"
       transform="translate(18.93 26.807)"
       id="path979" />
    <path
       d="m0 0c0 4.966-2.56 8.581-4.561 10.65.898 1.533.704 3.53-.611 4.844l-1.098 1.099c.351 1.332.021 2.806-1.023 3.85l-4.949 4.95c.78.781.78 2.047 0 2.828-.781.781-2.049.781-2.829.001l-2.826-2.826c-.001-.001-.002-.002-.003-.003l-4.243-4.243-2.828-2.828c-.781-.781-.781-2.047 0-2.828.782-.781 2.047-.781 2.828 0l4.951-4.95c1.044-1.044 2.518-1.373 3.849-1.021l1.101-1.101c1.318-1.318 3.323-1.51 4.857-.602 1.484-1.546 3.385-4.224 3.385-7.82z"
       fill="#292f33"
       transform="translate(34)"
       id="path981" />
  </g>
</svg>
